# xmcd
#
# Track frame offsets: 
#        150
#        17455
#        35470
#        61177
#        76382
#        94679
#        115194
#        139121
#        156200
#        175586
#        198840
#        213191
#        233228
#        256709
#        282168
#        303663
#
# Disc length: 4306 seconds
#
# Revision: 0
# Processed by: cddbd v1.5.2PL0 Copyright (c) Steve Scherf et al.
# Submitted via: ExactAudioCopyFreeDBPlugin 1.0
#
DISCID=c710d010
DTITLE=Wu-Tang Clan - The Wu-Tang Classics Vol 1
DYEAR=2019
DGENRE=Instrumentals
TTITLE0=C.R.E.A.M.
TTITLE1=Ain't Nothin' Ta Fuck Wit
TTITLE2=Triumph
TTITLE3=Diesel
TTITLE4=One
TTITLE5=Dashing
TTITLE6=Cakes
TTITLE7=I Gotcha Back
TTITLE8=House Of Flying Daggers
TTITLE9=It's Yourz
TTITLE10=Plo Style
TTITLE11=Drama
TTITLE12=Cold World
TTITLE13=Camay
TTITLE14=Can It Be All So Simple
TTITLE15=4th Chamber
EXTD=
EXTT0=
EXTT1=
EXTT2=
EXTT3=
EXTT4=
EXTT5=
EXTT6=
EXTT7=
EXTT8=
EXTT9=
EXTT10=
EXTT11=
EXTT12=
EXTT13=
EXTT14=
EXTT15=
PLAYORDER=
